<svg width="25" height="24" viewBox="0 0 25 24" fill="none" xmlns="http://www.w3.org/2000/svg">
<path d="M6.05633 6.74329L7.03852 7.68158L7.33483 7.36882L6.9617 7.01764L7.57077 6.3537L7.33483 6.11776L6.72575 6.7817L6.4514 6.50734L7.33483 5.56904L7.09888 5.3331L5.88074 6.65001C5.9411 6.68842 6.00146 6.70488 6.05633 6.74329ZM8.21277 4.76792L8.23471 6.33724L8.60784 6.12324V5.81048L9.49126 5.30017L9.74367 5.47576L10.1168 5.26176L8.64625 4.32347L8.11948 4.61977C8.17436 4.64721 8.21277 4.70757 8.21277 4.76792ZM9.17301 5.1191L8.60235 5.45381L8.5804 4.72951L9.17301 5.1191ZM11.9385 4.84474H12.3501V4.41126H13.0579L13.3707 4.84474H13.8426L13.4914 4.37285L13.5298 4.3509C13.7054 4.25213 13.8261 4.0546 13.8041 3.8406C13.8261 3.52783 13.5901 3.26994 13.2938 3.25348C13.2719 3.25348 13.2554 3.25348 13.217 3.25348H11.8617C11.9001 3.31384 11.9221 3.36871 11.9385 3.42907V4.84474ZM13.1567 3.61014C13.2719 3.61014 13.3707 3.70891 13.3707 3.82414V3.84609C13.3926 3.96132 13.2938 4.06009 13.1731 4.08203C13.1512 4.08203 13.1512 4.08203 13.1347 4.08203H12.3336V3.61014H13.1567ZM21.4861 10.8202C21.3873 10.2715 21.0362 9.88192 20.6246 9.88192C20.5862 9.88192 20.5478 9.88192 20.5094 9.90387C20.0375 9.98069 19.7851 10.491 19.8839 11.1001C19.9826 11.6707 20.3174 12.0384 20.7453 12.0384C20.7838 12.0384 20.8222 12.0384 20.8606 12.0164C21.327 11.9396 21.5849 11.4293 21.4861 10.8202ZM20.7783 11.5884C20.7563 11.5884 20.7179 11.5884 20.7015 11.5884C20.4655 11.5884 20.268 11.3744 20.2131 11.0397C20.1527 10.6501 20.2899 10.3758 20.5643 10.3319C20.5862 10.3319 20.6246 10.3319 20.6411 10.3319C20.877 10.3319 21.0746 10.5459 21.1294 10.8806C21.2118 11.2537 21.0746 11.55 20.7783 11.5884ZM17.8207 5.49222L17.6616 6.68842L17.6835 6.71036L18.8194 6.43601L18.1938 7.28102L18.5066 7.57733L19.4669 6.32078L19.1157 5.98606L18.117 6.20006L18.2322 5.163L17.8591 4.81182L17.8207 4.77341C17.8207 4.85023 17.7988 4.91059 17.7439 4.97095L16.7617 5.93119L17.0745 6.2275L17.8207 5.49222ZM15.3076 5.35505C15.4667 5.4154 15.6204 5.43187 15.7795 5.43187C16.1307 5.45381 16.4434 5.25628 16.5806 4.92156C16.6574 4.68562 16.619 4.44967 16.4819 4.23567C16.3227 4.02168 16.1087 3.86255 15.8563 3.78573C15.6972 3.72537 15.5436 3.70891 15.3844 3.70891C15.0333 3.6705 14.6985 3.8845 14.5833 4.21921C14.4297 4.66916 14.7205 5.13556 15.3076 5.35505ZM14.9784 4.35639C15.0387 4.15885 15.2308 4.04362 15.4283 4.06009C15.5271 4.06009 15.6259 4.08203 15.7246 4.12044C16.0758 4.25762 16.2514 4.51003 16.1581 4.78439C16.0978 4.98192 15.9057 5.09715 15.7082 5.08069C15.6094 5.08069 15.5106 5.05874 15.4119 5.02033C15.0552 4.88315 14.8796 4.63075 14.9784 4.35639ZM12.8 2.19995C7.3897 2.19995 3 6.58965 3 11.9999C3 17.4103 7.3897 21.7999 12.8 21.7999C18.2103 21.7999 22.6 17.4103 22.6 11.9999C22.6 6.58965 18.2103 2.19995 12.8 2.19995ZM12.8 21.4049C7.6037 21.4049 3.38959 17.1908 3.38959 11.9945C3.38959 6.79816 7.60918 2.58954 12.8 2.58954C17.9908 2.58954 22.2104 6.80365 22.2104 11.9999C22.2104 17.1963 17.9963 21.4049 12.8 21.4049ZM4.11937 11.0397C4.14132 11.0178 4.17973 11.0178 4.19619 11.0178C4.2346 11.0178 4.27301 11.0178 4.29496 11.0397L5.55151 11.9999L5.61187 11.5884L5.35946 11.3909L5.51859 10.3922L5.81489 10.2935L5.87525 9.88192L4.22911 10.4306L4.11937 11.0397ZM5.15644 10.5075L5.05767 11.1549L4.48701 10.7215L5.15644 10.5075ZM12.8604 8.7845L12.8823 8.76255L12.8604 8.7406C12.586 8.54306 12.3885 8.25225 12.2732 7.93948C12.2129 7.8023 12.1361 7.66512 12.0373 7.54989C11.9605 7.45113 11.8233 7.39077 11.7026 7.39077C11.6422 7.39077 11.5654 7.39077 11.505 7.41272H11.4666L11.4886 7.45113C11.527 7.54989 11.6038 7.62671 11.7026 7.66512H11.7849C11.9001 7.74194 11.9605 8.25225 11.9605 8.51014C11.9605 8.54855 11.9385 8.5705 11.9001 8.5705C11.8617 8.5705 11.8013 8.54855 11.7849 8.51014C11.7081 8.43332 11.6093 8.39491 11.5105 8.39491C11.313 8.37296 11.1374 8.53209 11.1209 8.72963V8.76803C11.1429 8.96557 11.3185 9.11921 11.5105 9.10275C11.6093 9.10275 11.7245 9.06434 11.7849 8.98752C11.8233 8.94911 11.8617 8.92716 11.9001 8.92716C11.9385 8.92716 11.9605 8.94911 11.9605 8.98752C11.9605 9.23993 11.9001 9.75023 11.7849 9.83254H11.7081C11.6093 9.87095 11.5325 9.94777 11.4941 10.0465L11.4721 10.0849H11.5105C11.5709 10.1069 11.6477 10.1069 11.7081 10.1069C11.8452 10.1069 11.9605 10.0465 12.0428 9.94777C12.158 9.83254 12.2403 9.69536 12.2787 9.55818C12.3885 9.25639 12.608 8.98203 12.8604 8.7845ZM12.6244 6.62806C12.7232 6.62806 12.8 6.55124 12.8 6.45247C12.8 6.3537 12.7232 6.27688 12.6244 6.27688C12.5256 6.27688 12.4488 6.3537 12.4488 6.45247C12.4488 6.52929 12.5256 6.60611 12.6244 6.62806ZM12.5641 7.06154H14.1114C14.1718 7.06154 14.2267 7.00118 14.2267 6.94631C14.2267 6.88595 14.1663 6.83108 14.1114 6.83108H12.5641C12.5037 6.83108 12.4488 6.89144 12.4488 6.94631C12.4488 7.01764 12.5092 7.06154 12.5641 7.06154ZM12.8 5.40992C9.17301 5.40992 6.21545 8.36748 6.23191 11.9945C6.25386 15.6214 9.18947 18.579 12.8165 18.5625C16.4434 18.5625 19.3845 15.6214 19.3845 11.978C19.3845 8.37296 16.4489 5.40992 12.8 5.40992ZM8.64625 16.6421C7.51041 15.6215 6.78611 14.2497 6.60504 12.7407H8.64625V16.6421ZM8.64625 11.2153H6.60504C6.80257 9.72828 7.50493 8.35101 8.64625 7.35236V11.2153ZM14.8193 17.9206C13.3103 18.4309 11.6422 18.354 10.1936 17.6681V12.7462H11.955C11.7794 12.2359 11.8398 11.6872 12.0702 11.2153H10.1881V6.33724C11.9934 5.51417 14.0895 5.57453 15.8124 6.53478C16.0264 6.67196 16.0868 6.94631 15.9496 7.16031C15.8728 7.29749 15.7137 7.37431 15.56 7.37431H14.7754C14.6162 7.35236 14.4791 7.41272 14.3638 7.51148C14.1498 7.70902 14.2267 7.92302 13.7767 7.92302H12.5421C12.7012 8.21932 12.9152 8.47173 13.1896 8.64732H14.6985C14.7589 8.64732 14.8138 8.68573 14.8357 8.74609C14.8357 8.76804 14.8357 8.7845 14.8577 8.80644V8.82839C14.8357 8.90521 14.7808 8.94362 14.7205 8.94362H13.1896C12.8768 9.11921 12.6628 9.39357 12.5421 9.72828H15.3076C15.4832 9.70633 15.6423 9.84351 15.6588 10.0246C15.6807 10.2002 15.5436 10.3593 15.3625 10.3758C15.3405 10.3758 15.3241 10.3758 15.3021 10.3758H13.9084C12.9482 10.3758 12.1635 11.1604 12.1635 12.1207C12.1635 13.0809 12.9482 13.8656 13.9084 13.8656H15.6533C15.7301 13.8656 15.7905 13.9259 15.7905 14.0027C15.7905 14.0796 15.7301 14.1399 15.6533 14.1399H13.87C13.1621 14.1399 12.597 14.7106 12.597 15.4129C12.597 16.1208 13.1676 16.686 13.87 16.686H14.5559C14.9071 16.686 15.1814 16.9603 15.1814 17.3115C15.1704 17.5639 15.0333 17.7998 14.8193 17.9206ZM17.486 7.84071C19.7796 10.4306 19.5437 14.3704 16.9592 16.6585C16.4873 17.0701 15.9606 17.4212 15.3735 17.6791L15.3515 17.7011H15.3735C15.9002 17.4487 16.1197 16.8176 15.8618 16.3073C15.6862 15.9342 15.3131 15.6983 14.9235 15.6983H13.8261C13.7493 15.6983 13.6889 15.6379 13.6889 15.5611C13.6889 15.4843 13.7493 15.4239 13.8261 15.4239H15.6862C16.5697 15.3855 17.2555 14.6612 17.2171 13.7778C17.1952 12.9328 16.5093 12.2688 15.6862 12.2469H13.881C13.8041 12.2469 13.7438 12.1865 13.7438 12.1097C13.7438 12.0329 13.8041 11.9725 13.881 11.9725H15.2527C16.7013 11.9945 17.8975 10.8147 17.8975 9.36613C17.8975 8.83937 17.7384 8.32907 17.4476 7.87912C17.4476 7.86266 17.4641 7.86266 17.486 7.84071C17.4641 7.84071 17.4641 7.84071 17.486 7.84071C17.486 7.86266 17.4641 7.84071 17.486 7.84071ZM13.3487 6.60611C13.4475 6.60611 13.5243 6.52929 13.5243 6.43052C13.5243 6.33175 13.4475 6.25493 13.3487 6.25493C13.2499 6.25493 13.1731 6.33175 13.1731 6.43052C13.1731 6.52929 13.2499 6.60611 13.3487 6.60611ZM19.3077 8.25225L19.5601 8.11507L19.9717 8.91619L20.268 8.75706L19.8564 7.95594L20.0924 7.81876L20.7015 8.97655L20.9978 8.81742L20.1747 7.23164C20.1527 7.292 20.0979 7.34687 20.0375 7.39077L18.8413 8.03825L19.6644 9.62403L19.9387 9.4649L19.3077 8.25225ZM6.4514 7.90107L5.92464 8.96008L4.82721 8.38942L4.59127 8.83937C4.61321 8.83937 4.65162 8.83937 4.66808 8.83937C4.70649 8.83937 4.7449 8.83937 4.78331 8.86132L5.99597 9.48685L6.72027 8.05471L6.4514 7.90107ZM14.0565 6.60611C14.1553 6.60611 14.2321 6.52929 14.2321 6.43052C14.2321 6.33175 14.1553 6.25493 14.0565 6.25493C13.9578 6.25493 13.881 6.33175 13.881 6.43052C13.881 6.52929 13.9578 6.60611 14.0565 6.60611Z" fill="currentColor"></path>
</svg>